<svg width="16" height="16" viewBox="0 0 16 16" fill="none" xmlns="http://www.w3.org/2000/svg">
<path d="M7.99073 7.37506C7.82522 7.37506 7.66648 7.44091 7.54945 7.55812C7.43242 7.67533 7.36667 7.8343 7.36667 8.00006C7.36667 8.16582 7.43242 8.32479 7.54945 8.442C7.66648 8.55921 7.82522 8.62506 7.99073 8.62506C8.15624 8.62506 8.31497 8.55921 8.43201 8.442C8.54904 8.32479 8.61479 8.16582 8.61479 8.00006C8.61479 7.8343 8.54904 7.67533 8.43201 7.55812C8.31497 7.44091 8.15624 7.37506 7.99073 7.37506ZM8.30276 1.75006C11.111 1.75006 11.1797 3.98131 9.70691 4.71881C9.08908 5.02506 8.81449 5.68131 8.69593 6.26256C8.99548 6.38756 9.25758 6.58131 9.45728 6.83131C11.7663 5.58131 14.2501 6.07506 14.2501 8.31256C14.2501 11.1251 12.0222 11.1876 11.2858 9.70631C10.9738 9.08756 10.3123 8.81256 9.73187 8.69381C9.60706 8.99381 9.4136 9.25006 9.16397 9.46256C10.4058 11.7688 9.91285 14.2501 7.6787 14.2501C4.87041 14.2501 4.81424 12.0126 6.28703 11.2751C6.89862 10.9688 7.17321 10.3188 7.29802 9.74381C6.99222 9.61881 6.72388 9.41881 6.52418 9.16881C4.22138 10.4063 1.75009 9.91881 1.75009 7.68756C1.75009 4.87506 3.97176 4.80631 4.70815 6.28756C5.02018 6.90631 5.67545 7.17506 6.25583 7.29381C6.37441 6.99381 6.57411 6.73131 6.82997 6.53131C5.58808 4.22506 6.08109 1.75006 8.30276 1.75006Z" fill="white"/>
</svg>
