<svg width="16" height="16" viewBox="0 0 16 16" fill="none" xmlns="http://www.w3.org/2000/svg">
<path d="M8.64001 1.67999C8.64001 3.74666 9.53335 5.11999 10.64 5.99999C11.7867 6.90666 13.1733 7.33333 14.08 7.42666V8.57333C12.8311 8.73505 11.648 9.2276 10.6533 9.99999C10.0018 10.5111 9.47986 11.1686 9.13005 11.9192C8.78023 12.6698 8.61234 13.4923 8.64001 14.32H7.36001C7.36001 12.2533 6.46668 10.88 5.36001 9.99999C4.36153 9.22541 3.17362 8.73275 1.92001 8.57333V7.42666C3.16896 7.26494 4.35199 6.77239 5.34668 5.99999C5.99827 5.48891 6.52016 4.83137 6.86998 4.08077C7.2198 3.33017 7.38769 2.50765 7.36001 1.67999H8.64001Z" fill="url(#paint0_linear_1_53)"/>
<defs>
<linearGradient id="paint0_linear_1_53" x1="4.49335" y1="4.57333" x2="10.8533" y2="11.8667" gradientUnits="userSpaceOnUse">
<stop stop-color="#FF0789"/>
<stop offset="0.63" stop-color="#21DE75"/>
<stop offset="1" stop-color="#FF8D00"/>
</linearGradient>
</defs>
</svg>
