<svg width="16" height="16" viewBox="0 0 16 16" fill="none" xmlns="http://www.w3.org/2000/svg">
<path d="M8.00001 4.47998C10.651 4.47998 12.8 3.90691 12.8 3.19998C12.8 2.49306 10.651 1.91998 8.00001 1.91998C5.34905 1.91998 3.20001 2.49306 3.20001 3.19998C3.20001 3.90691 5.34905 4.47998 8.00001 4.47998Z" fill="#FF6467" fill-opacity="0.25"/>
<path opacity="0.5" d="M8.00001 9.60001C10.651 9.60001 12.8 9.02695 12.8 8.32001V12.8C12.8 13.507 10.651 14.08 8.00001 14.08C5.34904 14.08 3.20001 13.507 3.20001 12.8V8.32001C3.20001 9.02695 5.34904 9.60001 8.00001 9.60001Z" fill="#FF6467"/>
<path opacity="0.5" d="M8.00001 4.48001C10.651 4.48001 12.8 3.90694 12.8 3.20001V7.36001C12.8 8.06696 10.651 8.64001 8.00001 8.64001C5.34904 8.64001 3.20001 8.06696 3.20001 7.36001V3.20001C3.20001 3.90694 5.34904 4.48001 8.00001 4.48001Z" fill="#FF6467"/>
<path d="M3.35123 7.67999C3.25252 7.78226 3.20001 8.20946 3.20001 8.31999C3.20001 9.02694 5.34904 9.59999 8.00001 9.59999C10.651 9.59999 12.8 9.02694 12.8 8.31999C12.8 8.20946 12.7475 7.78226 12.6488 7.67999C12.1159 8.23206 10.2366 8.63999 8.00001 8.63999C5.7634 8.63999 3.88408 8.23206 3.35123 7.67999Z" fill="#FF6467"/>
</svg>
