<svg width="16" height="16" viewBox="0 0 16 16" fill="none" xmlns="http://www.w3.org/2000/svg">
<path d="M4.8001 4.0001V3.6001C4.8001 2.4951 6.9501 1.6001 9.6001 1.6001C12.2501 1.6001 14.4001 2.4951 14.4001 3.6001V4.0001C14.4001 4.7651 13.3676 5.4301 11.8501 5.7676C11.7901 5.6976 11.7276 5.6301 11.6651 5.5676C11.2776 5.1851 10.7776 4.8951 10.2551 4.6801C9.2076 4.2426 7.8426 4.0026 6.4001 4.0026C5.8526 4.0026 5.3176 4.0376 4.8051 4.1051C4.8001 4.0726 4.8001 4.0376 4.8001 4.0026V4.0001ZM12.4001 10.4251V9.2701C12.7776 9.1726 13.1326 9.0576 13.4551 8.9226C13.7851 8.7851 14.1076 8.6176 14.4001 8.4151V8.8001C14.4001 9.4701 13.6126 10.0626 12.4001 10.4251ZM12.4001 8.0251V7.2001C12.4001 7.0876 12.3901 6.9801 12.3751 6.8751C12.7626 6.7776 13.1251 6.6601 13.4551 6.5201C13.7851 6.3801 14.1076 6.2151 14.4001 6.0126V6.3976C14.4001 7.0676 13.6126 7.6601 12.4001 8.0226V8.0251ZM1.6001 7.6001V7.2001C1.6001 6.0951 3.7501 5.2001 6.4001 5.2001C9.0501 5.2001 11.2001 6.0951 11.2001 7.2001V7.6001C11.2001 8.7051 9.0501 9.6001 6.4001 9.6001C3.7501 9.6001 1.6001 8.7051 1.6001 7.6001ZM11.2001 10.0001C11.2001 11.1051 9.0501 12.0001 6.4001 12.0001C3.7501 12.0001 1.6001 11.1051 1.6001 10.0001V9.6151C1.8901 9.8176 2.2126 9.9826 2.5451 10.1226C3.5926 10.5601 4.9576 10.8001 6.4001 10.8001C7.8426 10.8001 9.2076 10.5576 10.2551 10.1226C10.5851 9.9851 10.9076 9.8176 11.2001 9.6151V10.0001ZM11.2001 12.0151V12.4001C11.2001 13.5051 9.0501 14.4001 6.4001 14.4001C3.7501 14.4001 1.6001 13.5051 1.6001 12.4001V12.0151C1.8901 12.2176 2.2126 12.3826 2.5451 12.5226C3.5926 12.9601 4.9576 13.2001 6.4001 13.2001C7.8426 13.2001 9.2076 12.9576 10.2551 12.5226C10.5851 12.3851 10.9076 12.2176 11.2001 12.0151Z" fill="#FEE685"/>
</svg>
