<svg width="16" height="16" viewBox="0 0 16 16" fill="none" xmlns="http://www.w3.org/2000/svg">
<path opacity="0.6" d="M2.50668 13V5.49335H13.5067V13C13.5067 13.0666 13.4936 13.1324 13.4681 13.1939C13.4427 13.2554 13.4053 13.3112 13.3583 13.3583C13.3112 13.4053 13.2554 13.4427 13.1939 13.4681C13.1324 13.4936 13.0666 13.5067 13 13.5067H3.00001C2.93348 13.5067 2.86759 13.4936 2.80612 13.4681C2.74465 13.4427 2.68879 13.4053 2.64175 13.3583C2.5947 13.3112 2.55738 13.2554 2.53191 13.1939C2.50645 13.1324 2.49335 13.0666 2.49335 13H2.50668ZM6.00001 7.49335C5.93435 7.49335 5.86933 7.50628 5.80867 7.53141C5.74801 7.55654 5.69289 7.59336 5.64646 7.63979C5.60003 7.68622 5.5632 7.74134 5.53807 7.80201C5.51295 7.86267 5.50001 7.92769 5.50001 7.99335C5.50001 8.05901 5.51295 8.12403 5.53807 8.18469C5.5632 8.24535 5.60003 8.30047 5.64646 8.3469C5.69289 8.39333 5.74801 8.43016 5.80867 8.45529C5.86933 8.48042 5.93435 8.49335 6.00001 8.49335H10C10.1186 8.47392 10.2264 8.41296 10.3042 8.32138C10.382 8.22979 10.4248 8.11352 10.4248 7.99335C10.4248 7.87317 10.382 7.75691 10.3042 7.66532C10.2264 7.57373 10.1186 7.51278 10 7.49335H6.00001Z" fill="#51A2FF"/>
<path d="M13.36 2.63997C13.2621 2.55003 13.1329 2.50214 13 2.50664H3.00001C2.93412 2.50486 2.86853 2.5163 2.80713 2.54029C2.74572 2.56429 2.68975 2.60034 2.64252 2.64633C2.59529 2.69232 2.55776 2.74731 2.53213 2.80805C2.50651 2.86879 2.49332 2.93405 2.49335 2.99997V4.50664H13.4933V2.99997C13.4933 2.86664 13.4533 2.7333 13.36 2.63997Z" fill="#51A2FF"/>
</svg>
