<svg width="16" height="16" viewBox="0 0 16 16" fill="none" xmlns="http://www.w3.org/2000/svg">
<path fill-rule="evenodd" clip-rule="evenodd" d="M4.79301 2.92984C5.75273 2.32166 6.8645 2 8.00087 2C9.59161 2 11.1182 2.63278 12.2431 3.75773C13.3681 4.88267 14 6.40838 14 7.99912C14 9.10297 13.6968 10.1734 13.1361 11.1015C12.8874 11.5128 12.5885 11.896 12.2431 12.2423C11.1182 13.3672 9.59161 14 8.00087 14H2.60112C2.54048 14 2.47984 13.9912 2.42183 13.9736C2.36734 13.9561 2.31549 13.9297 2.26715 13.8981C2.16872 13.833 2.09226 13.7381 2.04656 13.6291C2.0114 13.5447 1.99646 13.4516 2.00174 13.3619L2.01228 13.2828C2.03601 13.1668 2.09314 13.0596 2.17663 12.9752L3.35519 11.7976C2.63628 10.9187 2.1819 9.85352 2.04392 8.72506C1.90682 7.59836 2.09226 6.45584 2.57827 5.42932C3.06516 4.40281 3.83329 3.53625 4.79301 2.92984Z" fill="#FFB800"/>
</svg>
