<svg width="67" height="71" viewBox="0 0 67 71" fill="none" xmlns="http://www.w3.org/2000/svg">
<path d="M33.5 0.672363C39.5449 0.672363 44.8344 2.04677 49.3682 4.79443C53.9706 7.47345 57.5433 11.3886 60.085 16.5405C62.6953 21.6925 64 27.9095 64 35.1909C64 42.4723 62.6952 48.758 60.085 54.0474C57.5433 59.2681 53.9706 63.2866 49.3682 66.103C44.8344 68.9194 39.545 70.3276 33.5 70.3276C27.4551 70.3276 22.1317 68.9194 17.5293 66.103C12.9955 63.2866 9.42286 59.2681 6.8125 54.0474C4.27093 48.758 3 42.4723 3 35.1909C3.00003 27.8408 4.27086 21.6238 6.8125 16.5405C9.42285 11.3886 12.9955 7.47347 17.5293 4.79443C22.1317 2.04677 27.4551 0.672414 33.5 0.672363ZM31.5732 14.8931C30.953 14.8931 30.3591 15.1456 29.9277 15.5913C29.4964 16.038 29.2617 16.6426 29.2832 17.2632C29.3534 19.2864 28.9286 21.3018 28.0361 23.144C27.1432 24.9868 25.8054 26.6091 24.127 27.8755C21.4553 29.8689 18.2712 31.1449 14.9014 31.5649C13.7557 31.7077 12.8945 32.6831 12.8936 33.8374V37.1646C12.8947 38.3204 13.7578 39.2954 14.9053 39.436C17.8683 39.7987 20.6905 40.8222 23.1475 42.4146L24.1768 43.1343C27.0095 45.3096 29.2831 48.6444 29.2832 53.8179C29.2832 55.0822 30.3087 56.1079 31.5732 56.1079H35.4277C36.048 56.1079 36.6429 55.8562 37.0742 55.4106C37.5056 54.9637 37.7393 54.3586 37.7178 53.7378C37.6476 51.7145 38.0733 49.6993 38.9658 47.8569C39.8586 46.0145 41.1921 44.387 42.8701 43.1206C45.5418 41.1272 48.7298 39.8561 52.0996 39.436C53.2453 39.2933 54.1073 38.3187 54.1084 37.1646V33.8374C54.1075 32.6611 53.2128 31.6771 52.042 31.561C49.9616 31.3546 46.8245 30.4772 44.0186 28.6987L42.8428 27.8804C40.0016 25.7054 37.7178 22.3676 37.7178 17.1831C37.7178 15.9185 36.6923 14.8931 35.4277 14.8931H31.5732Z" fill="url(#paint0_linear_15_78)"/>
<defs>
<linearGradient id="paint0_linear_15_78" x1="-37.7807" y1="-42.8992" x2="48.3745" y2="94.1187" gradientUnits="userSpaceOnUse">
<stop offset="0.15" stop-color="#F6339A"/>
<stop offset="0.5" stop-color="#00BC7D"/>
<stop offset="1" stop-color="#FE9A00"/>
</linearGradient>
</defs>
</svg>
